<svg width="50" height="32" viewBox="0 0 50 32" fill="none" xmlns="http://www.w3.org/2000/svg">
<g id="MasterCard" clip-path="url(#clip0_29_973)">
<g id="MasterCard_2">
<rect id="Rectangle" width="50" height="32" rx="3" fill="#0F3560"/>
<g id="Group">
<g id="Group_2">
<path id="Vector" d="M29.3635 23.8654H20.6143V8.1416H29.3635V23.8654Z" fill="#FF5F00"/>
<g id="Group_3">
<path id="Vector_2" d="M21.1748 16.002C21.1748 12.8123 22.6682 9.97105 24.9938 8.14004C23.2931 6.80111 21.1468 6.00195 18.8142 6.00195C13.2919 6.00195 8.81543 10.479 8.81543 16.002C8.81543 21.5249 13.2919 26.002 18.8142 26.002C21.1468 26.002 23.2931 25.2028 24.9938 23.8639C22.6682 22.0329 21.1748 19.1916 21.1748 16.002Z" fill="#EB001B"/>
</g>
<g id="Group_4">
<path id="Vector_3" d="M41.1634 16.002C41.1634 21.5249 36.687 26.002 31.1647 26.002C28.832 26.002 26.6857 25.2028 24.9844 23.8639C27.3107 22.0329 28.8041 19.1916 28.8041 16.002C28.8041 12.8123 27.3107 9.97105 24.9844 8.14004C26.6857 6.80111 28.832 6.00195 31.1647 6.00195C36.687 6.00195 41.1634 10.479 41.1634 16.002Z" fill="#F79E1B"/>
</g>
</g>
<g id="Group_5">
<path id="Vector_4" d="M16.3393 16.0651C16.3393 15.6283 16.6256 15.2694 17.0933 15.2694C17.5402 15.2694 17.8419 15.6128 17.8419 16.0651C17.8419 16.5174 17.5402 16.8607 17.0933 16.8607C16.6256 16.8607 16.3393 16.5019 16.3393 16.0651ZM18.3513 16.0651V14.8225H17.811V15.1242C17.6396 14.9005 17.3796 14.76 17.0261 14.76C16.3292 14.76 15.7829 15.3063 15.7829 16.0651C15.7829 16.8244 16.3292 17.3701 17.0261 17.3701C17.3796 17.3701 17.6396 17.2297 17.811 17.0059V17.3076H18.3513V16.0651ZM36.6111 16.0651C36.6111 15.6283 36.8974 15.2694 37.3651 15.2694C37.8126 15.2694 38.1137 15.6128 38.1137 16.0651C38.1137 16.5174 37.8126 16.8607 37.3651 16.8607C36.8974 16.8607 36.6111 16.5019 36.6111 16.0651ZM38.6237 16.0651V13.8246H38.0828V15.1242C37.9114 14.9005 37.6513 14.76 37.2979 14.76C36.601 14.76 36.0547 15.3063 36.0547 16.0651C36.0547 16.8244 36.601 17.3701 37.2979 17.3701C37.6513 17.3701 37.9114 17.2297 38.0828 17.0059V17.3076H38.6237V16.0651ZM25.0586 15.2439C25.4067 15.2439 25.6305 15.4623 25.6876 15.8467H24.3981C24.4558 15.4878 24.6736 15.2439 25.0586 15.2439ZM25.0693 14.76C24.3409 14.76 23.8315 15.2903 23.8315 16.0651C23.8315 16.8554 24.3618 17.3701 25.1056 17.3701C25.4799 17.3701 25.8227 17.2767 26.1244 17.022L25.8596 16.6215C25.6513 16.7875 25.3859 16.8815 25.1366 16.8815C24.7884 16.8815 24.4713 16.7203 24.3933 16.2728H26.2387C26.244 16.2055 26.2494 16.1377 26.2494 16.0651C26.244 15.2903 25.7656 14.76 25.0693 14.76ZM31.5939 16.0651C31.5939 15.6283 31.8802 15.2694 32.3479 15.2694C32.7948 15.2694 33.0965 15.6128 33.0965 16.0651C33.0965 16.5174 32.7948 16.8607 32.3479 16.8607C31.8802 16.8607 31.5939 16.5019 31.5939 16.0651ZM33.6059 16.0651V14.8225H33.0656V15.1242C32.8936 14.9005 32.6341 14.76 32.2806 14.76C31.5838 14.76 31.0375 15.3063 31.0375 16.0651C31.0375 16.8244 31.5838 17.3701 32.2806 17.3701C32.6341 17.3701 32.8936 17.2297 33.0656 17.0059V17.3076H33.6059V16.0651ZM28.5423 16.0651C28.5423 16.8191 29.0672 17.3701 29.8681 17.3701C30.2425 17.3701 30.4918 17.2868 30.762 17.0738L30.5025 16.637C30.2996 16.7828 30.0865 16.8607 29.8521 16.8607C29.4206 16.8554 29.1035 16.5435 29.1035 16.0651C29.1035 15.5866 29.4206 15.2748 29.8521 15.2694C30.0865 15.2694 30.2996 15.3474 30.5025 15.4932L30.762 15.0564C30.4918 14.8434 30.2425 14.76 29.8681 14.76C29.0672 14.76 28.5423 15.3111 28.5423 16.0651ZM35.509 14.76C35.1972 14.76 34.9943 14.9058 34.8538 15.1242V14.8225H34.3182V17.3076H34.8592V15.9145C34.8592 15.5033 35.0359 15.2748 35.3894 15.2748C35.4989 15.2748 35.6132 15.2903 35.7274 15.3373L35.894 14.8279C35.7744 14.7809 35.6185 14.76 35.509 14.76ZM21.0239 15.0201C20.7638 14.8487 20.4056 14.76 20.0105 14.76C19.3808 14.76 18.9756 15.0618 18.9756 15.5557C18.9756 15.9609 19.2773 16.2109 19.8331 16.2888L20.0884 16.3251C20.3848 16.3668 20.5246 16.4447 20.5246 16.5852C20.5246 16.7774 20.327 16.8869 19.9581 16.8869C19.5838 16.8869 19.3136 16.7673 19.1315 16.6268L18.8768 17.0476C19.1732 17.266 19.5475 17.3701 19.9527 17.3701C20.6704 17.3701 21.0864 17.0321 21.0864 16.559C21.0864 16.1222 20.7591 15.8937 20.2181 15.8157L19.9634 15.7788C19.7296 15.7479 19.5421 15.7015 19.5421 15.5349C19.5421 15.3528 19.7189 15.2439 20.0152 15.2439C20.3324 15.2439 20.6395 15.3635 20.79 15.4569L21.0239 15.0201ZM27.996 14.76C27.6842 14.76 27.4812 14.9058 27.3414 15.1242V14.8225H26.8058V17.3076H27.3461V15.9145C27.3461 15.5033 27.5229 15.2748 27.8764 15.2748C27.9859 15.2748 28.1001 15.2903 28.2144 15.3373L28.381 14.8279C28.2614 14.7809 28.1055 14.76 27.996 14.76ZM23.3846 14.8225H22.5009V14.0685H21.9546V14.8225H21.4506V15.3165H21.9546V16.4501C21.9546 17.0267 22.1784 17.3701 22.8175 17.3701C23.052 17.3701 23.3221 17.2975 23.4935 17.1779L23.3376 16.7149C23.1763 16.8084 22.9996 16.8554 22.8592 16.8554C22.589 16.8554 22.5009 16.6887 22.5009 16.4394V15.3165H23.3846V14.8225ZM15.3051 17.3076V15.7479C15.3051 15.1605 14.9307 14.7654 14.3273 14.76C14.0101 14.7547 13.6828 14.8535 13.4537 15.2022C13.2823 14.9267 13.0122 14.76 12.6325 14.76C12.3671 14.76 12.1076 14.838 11.9047 15.129V14.8225H11.3638V17.3076H11.9095V15.93C11.9095 15.4986 12.1487 15.2694 12.5182 15.2694C12.8771 15.2694 13.0586 15.5033 13.0586 15.9246V17.3076H13.6049V15.93C13.6049 15.4986 13.8542 15.2694 14.2131 15.2694C14.582 15.2694 14.7588 15.5033 14.7588 15.9246V17.3076H15.3051Z" fill="white"/>
</g>
</g>
</g>
</g>
<defs>
<clipPath id="clip0_29_973">
<rect width="50" height="32" fill="white"/>
</clipPath>
</defs>
</svg>
