<svg width="50" height="32" viewBox="0 0 50 32" fill="none" xmlns="http://www.w3.org/2000/svg">
<g id="PayPal" clip-path="url(#clip0_29_974)">
<g id="PayPal_2">
<rect id="Rectangle" width="50" height="32" rx="3" fill="#082069"/>
<g id="Group">
<g id="Group_2">
<path id="Vector" d="M14.874 20.9004H12.8013C12.6595 20.9004 12.5389 21.0034 12.5167 21.1435L11.6784 26.4584C11.6618 26.5632 11.743 26.6578 11.8494 26.6578H12.8389C12.9807 26.6578 13.1014 26.5548 13.1235 26.4144L13.3496 24.9809C13.3714 24.8406 13.4923 24.7376 13.6338 24.7376H14.29C15.6553 24.7376 16.4433 24.0769 16.6491 22.7676C16.7418 22.1948 16.653 21.7447 16.3848 21.4295C16.0902 21.0834 15.5677 20.9004 14.874 20.9004ZM15.1131 22.8416C14.9998 23.5853 14.4315 23.5853 13.8821 23.5853H13.5693L13.7887 22.1963C13.8018 22.1124 13.8745 22.0505 13.9593 22.0505H14.1027C14.477 22.0505 14.8301 22.0505 15.0125 22.2639C15.1213 22.3912 15.1547 22.5803 15.1131 22.8416Z" fill="white"/>
<path id="Vector_2" d="M21.0695 22.817H20.077C19.9924 22.817 19.9194 22.8788 19.9064 22.9628L19.8624 23.2404L19.793 23.1397C19.5781 22.8279 19.099 22.7236 18.6207 22.7236C17.5239 22.7236 16.5871 23.5543 16.4047 24.7196C16.3098 25.3009 16.4447 25.8568 16.7744 26.2444C17.0769 26.6008 17.5097 26.7493 18.0246 26.7493C18.9083 26.7493 19.3984 26.181 19.3984 26.181L19.3542 26.4568C19.3375 26.5623 19.4187 26.6569 19.5245 26.6569H20.4185C20.5607 26.6569 20.6807 26.5538 20.7031 26.4135L21.2396 23.0164C21.2565 22.9118 21.1756 22.817 21.0695 22.817ZM19.686 24.7487C19.5903 25.3158 19.1402 25.6964 18.5662 25.6964C18.278 25.6964 18.0476 25.604 17.8997 25.4288C17.753 25.2549 17.6973 25.0073 17.744 24.7315C17.8334 24.1693 18.291 23.7762 18.8562 23.7762C19.1381 23.7762 19.3672 23.8698 19.5181 24.0465C19.6694 24.225 19.7294 24.4742 19.686 24.7487Z" fill="white"/>
<path id="Vector_3" d="M26.3559 22.8174H25.3585C25.2633 22.8174 25.1739 22.8647 25.12 22.9438L23.7443 24.9701L23.1612 23.0229C23.1245 22.901 23.0121 22.8174 22.8848 22.8174H21.9047C21.7856 22.8174 21.7028 22.9338 21.7407 23.0459L22.8394 26.27L21.8065 27.728C21.7253 27.8429 21.8071 28.0008 21.9474 28.0008H22.9436C23.0382 28.0008 23.1267 27.9547 23.1803 27.8771L26.4977 23.0886C26.5771 22.9741 26.4956 22.8174 26.3559 22.8174Z" fill="white"/>
<path id="Vector_4" d="M29.6577 20.8994H27.5847C27.4432 20.8994 27.3226 21.0025 27.3004 21.1425L26.4621 26.4574C26.4455 26.5623 26.5267 26.6568 26.6325 26.6568H27.6962C27.795 26.6568 27.8796 26.5847 27.8951 26.4865L28.133 24.9799C28.1548 24.8396 28.2757 24.7366 28.4172 24.7366H29.0731C30.4387 24.7366 31.2264 24.0759 31.4325 22.7666C31.5255 22.1938 31.4361 21.7438 31.1679 21.4286C30.8736 21.0825 30.3514 20.8994 29.6577 20.8994ZM29.8968 22.8406C29.7838 23.5843 29.2155 23.5843 28.6658 23.5843H28.3533L28.573 22.1953C28.586 22.1114 28.6582 22.0496 28.7433 22.0496H28.8867C29.2607 22.0496 29.6141 22.0496 29.7965 22.2629C29.9053 22.3902 29.9383 22.5793 29.8968 22.8406Z" fill="white"/>
<path id="Vector_5" d="M35.8534 22.817H34.8615C34.7763 22.817 34.7039 22.8788 34.6911 22.9628L34.6472 23.2404L34.5775 23.1397C34.3626 22.8279 33.8838 22.7236 33.4055 22.7236C32.3087 22.7236 31.3722 23.5543 31.1898 24.7196C31.0952 25.3009 31.2295 25.8568 31.5592 26.2444C31.8623 26.6008 32.2945 26.7493 32.8094 26.7493C33.6931 26.7493 34.1832 26.181 34.1832 26.181L34.1389 26.4568C34.1223 26.5623 34.2035 26.6569 34.3099 26.6569H35.2036C35.3452 26.6569 35.4658 26.5538 35.4879 26.4135L36.0246 23.0164C36.041 22.9118 35.9598 22.817 35.8534 22.817ZM34.4699 24.7487C34.3747 25.3158 33.9241 25.6964 33.35 25.6964C33.0624 25.6964 32.8315 25.604 32.6836 25.4288C32.5369 25.2549 32.4817 25.0073 32.5278 24.7315C32.6178 24.1693 33.0749 23.7762 33.6401 23.7762C33.9219 23.7762 34.1511 23.8698 34.302 24.0465C34.4538 24.225 34.5138 24.4742 34.4699 24.7487Z" fill="white"/>
<path id="Vector_6" d="M37.0238 21.0455L36.1731 26.4577C36.1564 26.5626 36.2376 26.6571 36.3434 26.6571H37.1987C37.3408 26.6571 37.4614 26.5541 37.4832 26.4138L38.3221 21.0991C38.3388 20.9943 38.2576 20.8994 38.1518 20.8994H37.1941C37.1096 20.8997 37.0368 20.9615 37.0238 21.0455Z" fill="white"/>
</g>
<g id="Group_3">
<path id="Vector_7" opacity="0.68" d="M30.116 7.42382C30.2805 6.37542 30.1149 5.66222 29.5479 5.016C28.9237 4.30472 27.7959 4 26.3531 4H22.1647C21.8699 4 21.6187 4.21454 21.5728 4.50594L19.8287 15.5653C19.7943 15.7835 19.963 15.9808 20.1838 15.9808H22.7695L22.591 17.1125C22.561 17.3034 22.7084 17.4759 22.9016 17.4759H25.0812C25.3391 17.4759 25.5587 17.2883 25.5989 17.0334L25.6204 16.9225L26.0309 14.3189L26.0574 14.1751C26.0976 13.9203 26.3172 13.7324 26.5751 13.7324H26.9011C29.0126 13.7324 30.6659 12.8747 31.1489 10.3939C31.3508 9.35726 31.2464 8.49198 30.7126 7.88364C30.5513 7.69999 30.3503 7.5479 30.116 7.42382Z" fill="white"/>
<path id="Vector_8" opacity="0.7" d="M30.116 7.42382C30.2805 6.37542 30.1149 5.66222 29.5479 5.016C28.9237 4.30472 27.7959 4 26.3531 4H22.1647C21.8699 4 21.6187 4.21454 21.5728 4.50594L19.8287 15.5653C19.7943 15.7835 19.963 15.9808 20.1838 15.9808H22.7695L23.419 11.862L23.3988 11.9911C23.4448 11.6999 23.6936 11.4852 23.9886 11.4852H25.2176C27.6312 11.4852 29.5212 10.5046 30.0732 7.66883C30.0897 7.5851 30.1035 7.5037 30.116 7.42382Z" fill="white"/>
<path id="Vector_9" d="M24.1168 7.43768C24.1444 7.26254 24.257 7.11896 24.4083 7.04649C24.4771 7.01355 24.5541 6.99515 24.6347 6.99515H27.9178C28.3068 6.99515 28.6695 7.02068 29.0009 7.07408C29.0956 7.08931 29.1879 7.10688 29.2775 7.12679C29.367 7.14669 29.454 7.16879 29.5382 7.1935C29.5803 7.20571 29.6216 7.21875 29.6624 7.2322C29.8252 7.28628 29.9769 7.34997 30.1163 7.42395C30.2808 6.37556 30.1152 5.66236 29.5482 5.01614C28.9237 4.30472 27.7959 4 26.3531 4H22.1647C21.8699 4 21.6187 4.21454 21.5728 4.50594L19.8287 15.5653C19.7943 15.7835 19.963 15.9808 20.1838 15.9808H22.7695L23.419 11.862L24.1168 7.43768Z" fill="white"/>
</g>
</g>
</g>
</g>
<defs>
<clipPath id="clip0_29_974">
<rect width="50" height="32" fill="white"/>
</clipPath>
</defs>
</svg>
